<?xml version="1.0" encoding="utf-8"?>
<!-- Generator: Adobe Illustrator 22.1.0, SVG Export Plug-In . SVG Version: 6.00 Build 0)  -->
<svg version="1.1" id="Capa_1" xmlns="http://www.w3.org/2000/svg" xmlns:xlink="http://www.w3.org/1999/xlink" x="0px" y="0px"
	 viewBox="0 0 35.9 35.8" style="enable-background:new 0 0 35.9 35.8;" xml:space="preserve">
<style type="text/css">
	.st0{fill:#FFFFFF;}
</style>
<path class="st0" d="M17.9,0C8,0,0,8,0,17.9c0,9.9,8,17.9,17.9,17.9c9.9,0,17.9-8,17.9-17.9C35.9,8,27.8,0,17.9,0z M26.6,24.8
	c-0.2,0.2-0.3,0.3-0.5,0.5l-0.1,0.1c-0.2,0.2-0.5,0.5-0.7,0.7l0,0c-0.6,0.7-1.4,1-2.3,1c-0.1,0-0.2,0-0.2,0l0,0
	c-1.4-0.1-2.7-0.6-3.7-1.1c-2.5-1.2-4.7-2.9-6.6-5.1c-1.5-1.8-2.5-3.5-3.2-5.3c-0.3-0.7-0.6-1.9-0.5-3.1c0.1-0.7,0.4-1.4,0.9-1.9
	L11,9.2c0.4-0.4,0.9-0.6,1.3-0.6c0.5,0,0.9,0.2,1.3,0.6c0.3,0.2,0.5,0.5,0.8,0.8c0.1,0.1,0.2,0.2,0.4,0.4l1.2,1.2
	c0.4,0.4,0.6,0.9,0.6,1.4s-0.2,1-0.6,1.4l-0.2,0.2c-0.1,0.1-0.1,0.1-0.2,0.2l-0.1,0.1c-0.3,0.3-0.6,0.6-0.9,0.9l-0.1,0.1l0,0.1
	c0.3,0.6,0.6,1.1,1.2,1.8c1.1,1.3,2.2,2.4,3.5,3.2c0.1,0.1,0.3,0.2,0.4,0.2l0.1,0.1c0.1,0,0.1,0.1,0.2,0.1l0.1,0l1.4-1.4
	c0.4-0.4,0.9-0.6,1.3-0.6c0.5,0,0.9,0.2,1.3,0.6l2.3,2.3c0.4,0.4,0.6,0.9,0.6,1.4C27.2,24,27,24.4,26.6,24.8z"/>
</svg>
