<?xml version="1.0" encoding="utf-8"?>
<!-- Generator: Adobe Illustrator 22.1.0, SVG Export Plug-In . SVG Version: 6.00 Build 0)  -->
<svg version="1.1" id="Capa_1" xmlns="http://www.w3.org/2000/svg" xmlns:xlink="http://www.w3.org/1999/xlink" x="0px" y="0px"
	 viewBox="0 0 44.9 45.1" style="enable-background:new 0 0 44.9 45.1;" xml:space="preserve">
<path d="M42,40.9l0.2-0.2c0.5-0.5,0.9-0.9,1.3-1.3c1-1,1.5-2.1,1.5-3.3c0-1.2-0.5-2.3-1.5-3.3l-5.6-5.7c-0.9-1-2.1-1.5-3.2-1.5
	c-1.2,0-2.3,0.5-3.3,1.5l-3.4,3.4l-0.2-0.1c-0.2-0.1-0.3-0.2-0.5-0.3l-0.3-0.2c-0.4-0.2-0.7-0.4-1-0.6c-3.1-1.9-5.9-4.5-8.5-7.8
	c-1.3-1.6-2.2-3-2.8-4.4l-0.1-0.2l0.2-0.2c0.7-0.7,1.4-1.4,2.1-2.1l0.2-0.2c0.2-0.2,0.3-0.3,0.5-0.5l0.4-0.4c1-1,1.5-2.1,1.5-3.3
	s-0.5-2.3-1.5-3.3l-2.9-2.9c-0.3-0.3-0.6-0.6-0.9-0.9c-0.6-0.6-1.3-1.3-1.9-1.9C11.2,0.5,10.1,0,8.9,0C7.8,0,6.6,0.5,5.7,1.4
	L2.2,4.9C0.9,6.2,0.2,7.7,0,9.5c-0.2,2.9,0.6,5.7,1.3,7.5c1.7,4.5,4.1,8.6,7.8,13c4.5,5.3,9.8,9.5,16,12.5c2.3,1.1,5.5,2.4,8.9,2.6
	l0,0c0.2,0,0.4,0,0.6,0c2.3,0,4.2-0.8,5.7-2.4l0-0.1C40.8,42,41.4,41.5,42,40.9z M40.7,39.2c-0.6,0.6-1.3,1.3-2,2
	c-1.1,1.2-2.4,1.7-4.1,1.7c-0.2,0-0.3,0-0.5,0c-3.1-0.2-6-1.4-8.1-2.4c-5.9-2.8-11-6.8-15.2-11.9c-3.5-4.2-5.9-8.2-7.4-12.4
	c-1-2.6-1.3-4.6-1.2-6.6c0.1-1.3,0.6-2.3,1.5-3.2l3.5-3.5c1.2-1.1,2.4-1.1,3.5,0c0.7,0.6,1.3,1.2,1.9,1.9L13,5.3
	c0.2,0.2,0.4,0.4,0.5,0.5l2.8,2.8c0.6,0.6,0.9,1.2,0.9,1.8s-0.3,1.2-0.9,1.8L16,12.5c-0.2,0.2-0.4,0.4-0.6,0.6
	c-0.9,0.9-1.7,1.7-2.6,2.5l0,0c-0.7,0.7-0.6,1.4-0.5,2l0,0.1c0.7,1.7,1.7,3.3,3.3,5.3c2.8,3.5,5.8,6.2,9,8.2
	c0.4,0.3,0.8,0.5,1.2,0.7c0.4,0.2,0.8,0.4,1.1,0.6c0,0,0,0,0,0s0,0,0.1,0l0,0c0.3,0.2,0.6,0.2,0.9,0.2c0.7,0,1.2-0.5,1.3-0.6
	l3.5-3.5c0.4-0.4,1-0.9,1.8-0.9c0.8,0,1.4,0.5,1.7,0.9l5.7,5.7c1.2,1.2,1.2,2.5,0,3.7c-0.3,0.4-0.7,0.7-1,1L40.7,39.2z"/>
</svg>
