<?xml version="1.0" encoding="utf-8"?>
<!-- Generator: Adobe Illustrator 22.1.0, SVG Export Plug-In . SVG Version: 6.00 Build 0)  -->
<svg version="1.1" id="Capa_1" xmlns="http://www.w3.org/2000/svg" xmlns:xlink="http://www.w3.org/1999/xlink" x="0px" y="0px" 
	 viewBox="0 0 38.1 38.1" style="enable-background:new 0 0 38.1 38.1;" xml:space="preserve">
<g>
	<path fill="#ffffff" d="M32.5,5.6C28.9,2,24.1,0,19,0C14,0,9.2,2,5.6,5.6C2,9.2,0,14,0,19s2,9.9,5.6,13.5c3.6,3.6,8.4,5.6,13.5,5.6
		c5.1,0,9.9-2,13.5-5.6c3.6-3.6,5.6-8.4,5.6-13.5S36.1,9.2,32.5,5.6z M19,35.9C9.8,35.9,2.2,28.3,2.2,19S9.8,2.2,19,2.2
		S35.9,9.8,35.9,19S28.3,35.9,19,35.9z"/>
	<path fill="#ffffff" d="M27.6,12.9l-9.9,9.9l-5.2-5.2c-0.4-0.4-1.1-0.4-1.6,0c-0.4,0.4-0.4,1.1,0,1.6l6,6c0.2,0.2,0.5,0.3,0.8,0.3s0.6-0.1,0.8-0.3
		l10.6-10.6c0.4-0.4,0.4-1.1,0-1.6C28.7,12.5,28,12.5,27.6,12.9z"/>
</g>
</svg>
