<?xml version="1.0" encoding="utf-8"?>
<!-- Generator: Adobe Illustrator 22.1.0, SVG Export Plug-In . SVG Version: 6.00 Build 0)  -->
<svg version="1.1" id="Capa_1" xmlns="http://www.w3.org/2000/svg" xmlns:xlink="http://www.w3.org/1999/xlink" x="0px" y="0px"
	 viewBox="0 0 35.9 35.8" style="enable-background:new 0 0 35.9 35.8;" xml:space="preserve">
<style type="text/css">
	.st0{fill:#FFFFFF;}
</style>
<path class="st0" d="M17.9,0C8,0,0,8,0,17.9c0,9.9,8,17.9,17.9,17.9c9.9,0,17.9-8,17.9-17.9C35.9,8,27.8,0,17.9,0z M10.1,20.4
	L10.1,20.4c-1.2,0-2.2-1-2.2-2.3s1-2.3,2.3-2.3h-0.1c1.2,0,2.3,1,2.3,2.3S11.3,20.4,10.1,20.4z M17.9,20.4L17.9,20.4
	c-1.2,0-2.2-1-2.2-2.3s1-2.3,2.3-2.3h-0.1c1.2,0,2.3,1,2.3,2.3S19.1,20.4,17.9,20.4z M25.7,20.4L25.7,20.4c-1.2,0-2.2-1-2.2-2.3
	s1-2.3,2.3-2.3h-0.1c1.2,0,2.3,1,2.3,2.3S27,20.4,25.7,20.4z"/>
</svg>
