<?xml version="1.0" encoding="utf-8"?>
<!-- Generator: Adobe Illustrator 22.1.0, SVG Export Plug-In . SVG Version: 6.00 Build 0)  -->
<svg version="1.1" id="Capa_1" xmlns="http://www.w3.org/2000/svg" xmlns:xlink="http://www.w3.org/1999/xlink" x="0px" y="0px"
	 viewBox="0 0 91.4 28.1" style="enable-background:new 0 0 91.4 28.1;" xml:space="preserve">
<style type="text/css">
	.st0{fill:#FFFFFF;}
</style>
<g>
	<path class="st0" d="M2.8,20.8c-0.9-0.5-1.5-1.1-2-1.9S0,17.2,0,16.1v-4.7c0-1,0.3-2,0.8-2.8C1.3,7.8,2,7.2,3,6.7
		C3.9,6.2,4.9,6,6.1,6c0.7,0,1.5,0.2,2.3,0.5s1.5,0.7,2,1.2l0.1-0.1C10.4,7.4,10.1,7.2,9.8,7V2.5c0-0.8,0.3-1.4,0.9-1.9
		C11.4,0.2,12.3,0,13.6,0v19c0,0.7-0.3,1.4-0.8,1.8c-0.6,0.5-1.4,0.7-2.6,0.7v-1.6c0.3-0.3,0.5-0.6,0.6-0.8L10.6,19
		c-0.6,0.8-1.3,1.5-2.1,1.9s-1.7,0.6-2.8,0.6C4.6,21.5,3.6,21.3,2.8,20.8z M9,17.7c0.6-0.4,0.9-1,0.9-1.6v-4.5
		c0-0.6-0.3-1.2-0.9-1.6S7.7,9.2,6.8,9.2c-1,0-1.7,0.2-2.3,0.6c-0.5,0.4-0.8,1-0.8,1.8v4.3c0,0.8,0.3,1.4,0.8,1.8
		c0.5,0.4,1.3,0.6,2.3,0.6C7.7,18.3,8.4,18.1,9,17.7z"/>
	<path class="st0" d="M22,10.2c-0.7,0.6-1.1,1.4-1.1,2.4v6.7c0,0.8-0.3,1.4-0.9,1.7c-0.6,0.4-1.5,0.5-2.8,0.5V8.9
		c0-0.9,0.3-1.6,0.9-2.1S19.5,6,20.7,6v1.8c-0.3,0.3-0.5,0.7-0.7,1l0.2,0.1C21.4,7,23,6,24.9,6c0.9,0,1.5,0.2,2,0.7
		c0.4,0.5,0.7,1,0.7,1.7c0,0.5-0.1,1-0.4,1.3c-0.5-0.3-1.3-0.4-2.2-0.4C23.7,9.2,22.7,9.6,22,10.2z"/>
	<path class="st0" d="M42.6,18.6c0,0.9-0.3,1.7-0.9,2.2c-0.6,0.5-1.5,0.8-2.7,0.8v-1.8c0.3-0.3,0.5-0.6,0.7-1l-0.2-0.1
		c-1.3,1.9-3,2.9-5.2,2.9c-1,0-1.9-0.2-2.7-0.7c-0.8-0.5-1.5-1.1-1.9-2c-0.5-0.8-0.7-1.8-0.7-2.8V8.3c0-0.8,0.3-1.4,0.9-1.8
		C30.6,6.2,31.5,6,32.8,6v9.8c0,0.8,0.2,1.4,0.7,1.9c0.5,0.5,1.2,0.7,2.1,0.7c1,0,1.8-0.3,2.4-0.9c0.6-0.6,0.9-1.4,0.9-2.4V8.3
		c0-0.8,0.3-1.4,0.9-1.8C40.4,6.2,41.3,6,42.6,6V18.6z"/>
	<path class="st0" d="M65,20.8c-1.1-0.5-1.9-1.1-2.5-2s-0.9-1.8-0.9-2.8v-4.2c0-1.1,0.3-2.1,0.9-2.9c0.6-0.9,1.4-1.6,2.4-2.1
		C66,6.3,67.1,6,68.5,6c1.3,0,2.5,0.3,3.6,0.8c1,0.5,1.9,1.2,2.5,2.1c0.6,0.9,0.9,1.9,0.9,2.9V16c0,1.1-0.3,2-0.9,2.8
		c-0.6,0.8-1.4,1.5-2.5,2c-1,0.5-2.2,0.7-3.5,0.7C67.2,21.5,66,21.3,65,20.8z M70.8,17.6c0.6-0.5,0.9-1.1,0.9-1.9V12
		c0-0.8-0.3-1.5-0.9-2s-1.4-0.8-2.4-0.8c-1,0-1.8,0.3-2.3,0.8c-0.6,0.5-0.9,1.2-0.9,2v3.8c0,0.8,0.3,1.4,0.9,1.9
		c0.6,0.5,1.4,0.7,2.3,0.7C69.5,18.3,70.3,18.1,70.8,17.6z"/>
	<path class="st0" d="M77.8,8.9c0-0.9,0.3-1.6,0.9-2.1S80.1,6,81.3,6v1.8c-0.2,0.3-0.5,0.6-0.7,1l0.2,0.1c0.6-0.9,1.4-1.6,2.3-2.1
		C84,6.3,85.1,6,86.2,6c1,0,1.9,0.2,2.7,0.7c0.8,0.5,1.4,1.1,1.8,1.9c0.4,0.8,0.6,1.7,0.6,2.7v8c0,0.8-0.3,1.4-0.9,1.7
		c-0.6,0.4-1.6,0.5-2.8,0.5v-9.7c0-0.8-0.2-1.4-0.7-1.9c-0.4-0.5-1.1-0.7-2-0.7c-1,0-1.9,0.3-2.5,0.9s-1,1.4-1,2.4v6.7
		c0,0.8-0.3,1.4-0.9,1.7c-0.6,0.4-1.5,0.5-2.8,0.5V8.9z"/>
	<path class="st0" d="M60.1,6h-0.9h-3.1c0,0-3.3,0-4.1,0c-1.9,0-3.6,0.2-4.6,1.1c-1.1,1-1.7,2.3-1.7,4c0,1,0.2,2.1,0.6,2.8
		c0.4,0.7,0.7,1.2,1.4,1.6c0.4-0.2,0.7-0.3,0.9-0.4l0.1,0.1c-0.6,0.3-1,0.5-1.5,1c-0.1,0.1-0.1,0.1-0.1,0.1
		c-0.5,0.6-0.7,1.2-0.7,1.8c0,0.5,0.1,1,0.3,1.4c0.2,0.4,0.4,0.6,0.8,0.8c0.3,0.2,1,0.5,1,0.5L48.6,21c-0.2-0.1-0.5-0.2-0.9-0.4
		c-0.8,0.3-1.5,0.8-1.9,1.4c-0.5,0.6-0.7,1.3-0.7,2.1c0,2.7,2.3,4,6.8,4c2.3,0,4.1-0.4,5.4-1.3c1.3-0.9,2-2.1,2-3.6
		c0-1.3-0.4-2.3-1.2-2.9c-0.8-0.6-2-1-3.4-1.2c-0.3-0.1-0.8-0.1-1.4-0.2c-1.1-0.1-1.9-0.3-2.4-0.5c-0.5-0.2-0.8-0.5-0.8-1
		c0-0.8,0.7-1.3,2.2-1.3c2.6,0,3.4-0.2,4.5-1.2c1-1,1.6-2.3,1.6-4c0-0.2,0-0.5-0.1-0.8c-0.1-0.3-0.1-0.7-0.2-1
		C58,9,57.9,8.9,57.8,8.7L58,8.7c0.1,0.2,0.3,0.4,0.4,0.8c0.8,0.3,1.3-0.2,1.6-2c0,0,0,0,0,0c0,0,0-0.1,0-0.1l0,0c0,0,0,0,0,0
		c0-0.1,0-0.3,0-0.4C60.1,6.7,60.1,6.3,60.1,6z M50.4,21.6c0.6,0.1,1,0.1,1.3,0.2c1.4,0.2,2.4,0.3,3.1,0.6c0.6,0.2,0.9,0.6,0.9,1.1
		c0,0.6-0.3,1-0.9,1.3c-0.6,0.3-1.4,0.5-2.6,0.5c-1.1,0-2-0.1-2.6-0.4c-0.6-0.3-0.9-0.7-0.9-1.2c0-0.4,0.2-0.8,0.5-1.1
		C49.4,22,49.8,21.8,50.4,21.6z M54.8,12.7c-0.4,0.4-0.8,0.6-1.4,0.6h-1.3h0h-1.3c-0.6,0-1.1-0.2-1.4-0.6c-0.4-0.4-0.6-0.9-0.6-1.6
		c0-0.7,0.2-1.2,0.6-1.6c0.4-0.4,0.8-0.6,1.4-0.6h1.3h0h1.3c0.6,0,1.1,0.2,1.4,0.6c0.4,0.4,0.6,0.9,0.6,1.6
		C55.4,11.8,55.2,12.3,54.8,12.7z"/>
</g>
</svg>
