<?xml version="1.0" encoding="utf-8"?>
<!-- Generator: Adobe Illustrator 22.1.0, SVG Export Plug-In . SVG Version: 6.00 Build 0)  -->
<svg version="1.1" id="Capa_1" xmlns="http://www.w3.org/2000/svg" xmlns:xlink="http://www.w3.org/1999/xlink" x="0px" y="0px"
	 viewBox="0 0 44.2 45" style="enable-background:new 0 0 44.2 45;" xml:space="preserve">
<g>
	<g>
		<path d="M36.9,8.1h-6.6V5.2C30.3,2.3,28,0,25.1,0h-6.1c-2.9,0-5.2,2.3-5.2,5.2v2.9H7.2c-4,0-7.2,3.2-7.2,7.2v22.4
			c0,4,3.2,7.2,7.2,7.2h29.7c4,0,7.2-3.2,7.2-7.2c0,0,0-21.5,0-21.5v-0.9C44.2,11.4,40.9,8.1,36.9,8.1z M16.2,5.2
			c0-1.6,1.3-2.9,2.9-2.9h6.1c1.6,0,2.9,1.3,2.9,2.9v2.9H16.2V5.2z M41.9,37.8c0,2.7-2.2,4.9-4.9,4.9H7.2c-2.7,0-4.9-2.2-4.9-4.9
			V15.4c0-2.7,2.2-4.9,4.9-4.9h29.7c2.7,0,4.9,2.2,4.9,4.9v0.9C41.9,16.2,41.9,37.7,41.9,37.8z"/>
		<path d="M29.7,26h-6.5v-6.7c0-0.6-0.5-1.2-1.2-1.2c-0.6,0-1.2,0.5-1.2,1.2V26h-6.5c-0.6,0-1.2,0.5-1.2,1.2s0.5,1.2,1.2,1.2h6.5
			v6.2c0,0.6,0.5,1.2,1.2,1.2c0.6,0,1.2-0.5,1.2-1.2v-6.2h6.5c0.6,0,1.2-0.5,1.2-1.2S30.3,26,29.7,26z"/>
	</g>
</g>
</svg>
