<?xml version="1.0" encoding="utf-8"?>
<!-- Generator: Adobe Illustrator 22.1.0, SVG Export Plug-In . SVG Version: 6.00 Build 0)  -->
<svg version="1.1" id="Capa_1" xmlns="http://www.w3.org/2000/svg" xmlns:xlink="http://www.w3.org/1999/xlink" x="0px" y="0px"
	 viewBox="0 0 36.5 46.1" style="enable-background:new 0 0 36.5 46.1;" xml:space="preserve">
<path d="M35.1,33.8c-0.9-0.8-1.4-2-1.4-3.2l0-10.3c0-6.1-3.7-11.7-9.3-14.1C24.2,6,24,5.9,23.5,5.7l-0.1,0l0,0
	c-0.6-0.2-1.3-0.4-1.9-0.5c0.3-0.5,0.4-1,0.4-1.6c0-2-1.6-3.5-3.5-3.5s-3.5,1.6-3.5,3.5c0,0.6,0.1,1.1,0.4,1.6
	C8,6.6,2.9,12.9,2.9,20.2v10.3c0,1.2-0.5,2.4-1.4,3.2C0.5,34.6,0,35.7,0,37c0,2.4,1.9,4.3,4.3,4.3h8.1c0.5,2.8,3,4.8,5.8,4.8
	c2.8,0,5.3-2.1,5.8-4.8h8.1c2.4,0,4.3-1.9,4.3-4.3C36.5,35.7,36,34.6,35.1,33.8z M21.7,41.3c-0.5,1.5-1.9,2.5-3.5,2.5
	c-1.6,0-3-1-3.5-2.5H21.7z M33.6,35.4c0.4,0.4,0.7,0.9,0.7,1.5c0,1.1-0.9,2.1-2.1,2.1H4.3c-1.1,0-2.1-0.9-2.1-2.1
	c0-0.6,0.2-1.1,0.7-1.5c1.4-1.3,2.2-3.1,2.2-4.9V20.2C5.1,13,11,7.1,18.3,7.1c1.2,0,2.3,0.2,3.5,0.5c0,0,0.8,0.2,1.1,0.4
	c5.1,1.9,8.6,6.8,8.6,12.3l0,10.3C31.4,32.4,32.2,34.2,33.6,35.4z M17,3.5c0-0.7,0.6-1.3,1.3-1.3s1.3,0.6,1.3,1.3
	c0,0.7-0.6,1.3-1.3,1.3S17,4.2,17,3.5z"/>
</svg>
