<?xml version="1.0" encoding="utf-8"?>
<!-- Generator: Adobe Illustrator 22.1.0, SVG Export Plug-In . SVG Version: 6.00 Build 0)  -->
<svg version="1.1" id="Capa_1" xmlns="http://www.w3.org/2000/svg" xmlns:xlink="http://www.w3.org/1999/xlink" x="0px" y="0px"
	 viewBox="0 0 512 512" style="enable-background:new 0 0 512 512;" xml:space="preserve">
<style type="text/css">
	.st0{fill:#415BE9;}
	.st1{fill:#FF328D;}
	.st2{fill:#C40B5A;}
	.st3{fill:#C0C0C0;}
	.st4{fill:#C6E2F7;}
	.st5{fill:#FFFFFF;}
	.st6{fill:#2AEA65;}
	.st7{fill:#B02721;}
	.st8{fill:#4D007E;}
</style>
<g>
	<path class="st0" d="M465.1,170.7h-8.5c-16.7,0-30.8-10.7-36-25.6h-4.7c-5.3,14.9-19.4,25.6-36,25.6h-8.5
		c-15.6,0-28.8-9.4-34.8-22.8c-11.7,33.1-43.2,56.9-80.4,56.9c-37.2,0-68.7-23.8-80.4-56.9c-6,13.4-19.2,22.8-34.8,22.8h-8.5
		c-16.7,0-30.8-10.7-36-25.6h-4.7c-5.3,14.9-19.4,25.6-36,25.6h-8.5c-4.5,0-8.8-0.9-12.8-2.4v321.3c0,7.6,6.2,13.8,13.8,13.8h416
		c7.6,0,13.8-6.2,13.8-13.8V168.3C473.8,169.7,469.6,170.7,465.1,170.7L465.1,170.7z M465.1,170.7"/>
	<path class="st1" d="M479.3,78.3c-11.9-11.9-18.5-28-18.5-44.7v-8.8c0-8.9-7.2-16.2-16.2-16.2H67.4c-8.9,0-16.2,7.2-16.2,16.2v8.8
		c0,16.8-6.7,32.9-18.5,44.7C17.2,93.7,8.5,114.7,8.5,136.5h494.9C503.5,114.7,494.8,93.7,479.3,78.3L479.3,78.3z M479.3,78.3"/>
	<path class="st2" d="M55.5,187.7h-8.5c-21.2,0-38.4-17.2-38.4-38.4v-12.8h85.3v12.8C93.9,170.5,76.7,187.7,55.5,187.7L55.5,187.7z
		 M55.5,187.7"/>
	<path class="st2" d="M465.1,187.7h-8.5c-21.2,0-38.4-17.2-38.4-38.4v-12.8h85.3v12.8C503.5,170.5,486.3,187.7,465.1,187.7
		L465.1,187.7z M465.1,187.7"/>
	<path class="st2" d="M170.7,136.5H93.9v12.8c0,21.2,17.2,38.4,38.4,38.4h8.5c15.5,0,28.9-9.3,34.9-22.6
		C172.5,156.2,170.7,146.6,170.7,136.5L170.7,136.5z M170.7,136.5"/>
	<path class="st2" d="M341.3,136.5c0,10.1-1.8,19.7-5,28.6c6,13.3,19.4,22.6,34.9,22.6h8.5c21.2,0,38.4-17.2,38.4-38.4v-12.8H341.3z
		 M341.3,136.5"/>
	<path class="st3" d="M435.2,503.5h-128V291.9c0-5.7,4.6-10.3,10.3-10.3h107.5c5.7,0,10.3,4.6,10.3,10.3V503.5z M435.2,503.5"/>
	<path class="st4" d="M250.8,435.2H90.5c-7.6,0-13.7-6.1-13.7-13.7V295.3c0-7.6,6.2-13.7,13.7-13.7h160.3c7.6,0,13.7,6.2,13.7,13.7
		v126.1C264.5,429,258.4,435.2,250.8,435.2L250.8,435.2z M250.8,435.2"/>
	<path class="st5" d="M341.3,136.5c0,47.1-38.2,85.3-85.3,85.3s-85.3-38.2-85.3-85.3c0-47.1,38.2-85.3,85.3-85.3
		S341.3,89.4,341.3,136.5L341.3,136.5z M341.3,136.5"/>
	<path class="st6" d="M299.7,119.5h-26.6V92.9c0-4.2-3.4-7.5-7.5-7.5h-19.1c-4.2,0-7.5,3.4-7.5,7.5v26.6h-26.6
		c-4.2,0-7.5,3.4-7.5,7.5v19.1c0,4.2,3.4,7.5,7.5,7.5h26.6v26.6c0,4.2,3.4,7.5,7.5,7.5h19.1c4.2,0,7.5-3.4,7.5-7.5v-26.6h26.6
		c4.2,0,7.5-3.4,7.5-7.5V127C307.2,122.8,303.8,119.5,299.7,119.5L299.7,119.5z M299.7,119.5"/>
	<path class="st7" d="M412.6,76.7c-7.6-12.6-11.6-27.1-11.6-41.8V8.5H384v26.3c0,17.8,4.8,35.3,14,50.6
		c7.6,12.6,11.6,27.1,11.6,41.8v9.3h17.1v-9.3C426.7,109.4,421.8,91.9,412.6,76.7L412.6,76.7z M412.6,76.7"/>
	<path class="st7" d="M315.7,75.6c7,6.9,12.8,14.9,17.1,23.9v-91h-17.1V75.6z M315.7,75.6"/>
	<path class="st7" d="M179.2,99.5c4.3-8.9,10.1-17,17.1-23.9V8.5h-17.1V99.5z M179.2,99.5"/>
	<path class="st7" d="M114,85.5c9.2-15.3,14-32.8,14-50.6V8.5h-17.1v26.3c0,14.7-4,29.2-11.6,41.8c-9.2,15.3-14,32.8-14,50.6v9.3
		h17.1v-9.3C102.4,112.5,106.4,98.1,114,85.5L114,85.5z M114,85.5"/>
	<path d="M93.9,145.1c-4.7,0-8.5-3.8-8.5-8.5v-9.3c0-17.8,4.8-35.3,14-50.6c7.6-12.6,11.6-27.1,11.6-41.8V8.5c0-4.7,3.8-8.5,8.5-8.5
		c4.7,0,8.5,3.8,8.5,8.5v26.3c0,17.8-4.8,35.3-14,50.6c-7.6,12.6-11.6,27.1-11.6,41.8v9.3C102.4,141.3,98.6,145.1,93.9,145.1
		L93.9,145.1z M93.9,145.1"/>
	<path d="M324.3,93.9c-4.7,0-8.5-3.8-8.5-8.5V8.5c0-4.7,3.8-8.5,8.5-8.5s8.5,3.8,8.5,8.5v76.8C332.8,90.1,329,93.9,324.3,93.9
		L324.3,93.9z M324.3,93.9"/>
	<path d="M418.1,145.1c-4.7,0-8.5-3.8-8.5-8.5v-9.3c0-14.7-4-29.2-11.6-41.8c-9.2-15.3-14-32.8-14-50.6V8.5c0-4.7,3.8-8.5,8.5-8.5
		c4.7,0,8.5,3.8,8.5,8.5v26.3c0,14.7,4,29.2,11.6,41.8c9.2,15.3,14,32.8,14,50.6v9.3C426.7,141.3,422.8,145.1,418.1,145.1
		L418.1,145.1z M418.1,145.1"/>
	<path d="M55.5,196.3h-8.5C21.1,196.3,0,175.2,0,149.3v-12.8c0-4.7,3.8-8.5,8.5-8.5h85.3c4.7,0,8.5,3.8,8.5,8.5v12.8
		C102.4,175.2,81.3,196.3,55.5,196.3L55.5,196.3z M17.1,145.1v4.3c0,16.5,13.4,29.9,29.9,29.9h8.5c16.5,0,29.9-13.4,29.9-29.9v-4.3
		H17.1z M17.1,145.1"/>
	<path d="M465.1,196.3h-8.5c-25.9,0-46.9-21.1-46.9-46.9v-12.8c0-4.7,3.8-8.5,8.5-8.5h85.3c4.7,0,8.5,3.8,8.5,8.5v12.8
		C512,175.2,490.9,196.3,465.1,196.3L465.1,196.3z M426.7,145.1v4.3c0,16.5,13.4,29.9,29.9,29.9h8.5c16.5,0,29.9-13.4,29.9-29.9
		v-4.3H426.7z M426.7,145.1"/>
	<path class="st8" d="M256,230.4c-51.8,0-93.9-42.1-93.9-93.9c0-51.8,42.1-93.9,93.9-93.9s93.9,42.1,93.9,93.9
		C349.9,188.3,307.8,230.4,256,230.4L256,230.4z M256,59.7c-42.4,0-76.8,34.4-76.8,76.8c0,42.3,34.4,76.8,76.8,76.8
		s76.8-34.4,76.8-76.8C332.8,94.2,298.4,59.7,256,59.7L256,59.7z M256,59.7"/>
	<path d="M273.1,196.3h-34.1c-4.7,0-8.5-3.8-8.5-8.5v-25.6h-25.6c-4.7,0-8.5-3.8-8.5-8.5v-34.1c0-4.7,3.8-8.5,8.5-8.5h25.6V85.3
		c0-4.7,3.8-8.5,8.5-8.5h34.1c4.7,0,8.5,3.8,8.5,8.5v25.6h25.6c4.7,0,8.5,3.8,8.5,8.5v34.1c0,4.7-3.8,8.5-8.5,8.5h-25.6v25.6
		C281.6,192.5,277.8,196.3,273.1,196.3L273.1,196.3z M247.5,179.2h17.1v-25.6c0-4.7,3.8-8.5,8.5-8.5h25.6V128h-25.6
		c-4.7,0-8.5-3.8-8.5-8.5V93.9h-17.1v25.6c0,4.7-3.8,8.5-8.5,8.5h-25.6v17.1h25.6c4.7,0,8.5,3.8,8.5,8.5V179.2z M247.5,179.2"/>
	<path d="M503.5,145.1H341.3c-4.7,0-8.5-3.8-8.5-8.5c0-42.4-34.4-76.8-76.8-76.8s-76.8,34.4-76.8,76.8c0,4.7-3.8,8.5-8.5,8.5H8.5
		c-4.7,0-8.5-3.8-8.5-8.5c0-24.3,9.5-47.1,26.6-64.3c10.3-10.3,16-24.1,16-38.7v-8.8C42.7,11.1,53.8,0,67.4,0h377.2
		c13.6,0,24.7,11.1,24.7,24.7v8.8c0,14.6,5.7,28.4,16,38.7c17.2,17.2,26.6,40,26.6,64.3C512,141.3,508.2,145.1,503.5,145.1
		L503.5,145.1z M349.5,128h145c-1.9-16.5-9.2-31.8-21.2-43.7c-13.6-13.6-21-31.6-21-50.8v-8.8c0-4.2-3.4-7.6-7.6-7.6H67.4
		c-4.2,0-7.6,3.4-7.6,7.6v8.8c0,19.2-7.5,37.2-21,50.8C26.8,96.2,19.4,111.5,17.6,128h145c4.3-47.8,44.6-85.3,93.5-85.3
		S345.2,80.2,349.5,128L349.5,128z M349.5,128"/>
	<path d="M477.9,512H34.1c-4.7,0-8.5-3.8-8.5-8.5V185.4c0-2.8,1.3-5.4,3.6-7c2.3-1.6,5.2-2,7.8-1.1c3.5,1.2,6.8,1.9,10,1.9h8.5
		c12.5,0,23.8-8,28-19.9c1.2-3.4,4.4-5.7,8-5.7h4.7c3.6,0,6.8,2.3,8,5.7c4.2,11.9,15.5,19.9,28,19.9h8.5c11.6,0,22.2-7,27-17.8
		c1.4-3.2,4.7-5.2,8.1-5c3.5,0.1,6.5,2.4,7.7,5.7c10.8,30.7,39.9,51.2,72.4,51.2s61.5-20.6,72.3-51.2c1.2-3.3,4.2-5.5,7.7-5.7
		c3.5-0.2,6.7,1.9,8.1,5c4.8,10.8,15.4,17.8,27,17.8h8.5c12.5,0,23.8-8,28-19.9c1.2-3.4,4.4-5.7,8-5.7h4.7c3.6,0,6.8,2.3,8,5.7
		c4.2,11.9,15.5,19.9,28,19.9h8.5c3.2,0,6.4-0.6,9.9-1.9c2.6-0.9,5.5-0.5,7.8,1.1c2.3,1.6,3.6,4.2,3.6,7v318.1
		C486.4,508.2,482.6,512,477.9,512L477.9,512z M42.7,494.9h426.7V196.1c-1.4,0.1-2.8,0.2-4.3,0.2h-8.5c-15.5,0-29.8-7.8-38.4-20.2
		c-8.6,12.4-22.9,20.2-38.4,20.2h-8.5c-12.7,0-24.6-5.2-33.3-14.1c-16.4,29.4-47.6,48.2-81.9,48.2s-65.6-18.9-81.9-48.2
		c-8.6,8.9-20.6,14.1-33.3,14.1h-8.5c-15.5,0-29.8-7.8-38.4-20.2c-8.6,12.4-22.9,20.2-38.4,20.2h-8.5c-1.4,0-2.8-0.1-4.3-0.2V494.9z
		 M42.7,494.9"/>
	<path d="M140.8,196.3h-8.5c-25.9,0-46.9-21.1-46.9-46.9v-12.8c0-4.7,3.8-8.5,8.5-8.5h76.8c4.7,0,8.5,3.8,8.5,8.5
		c0,8.7,1.5,17.3,4.5,25.8c0.7,2.1,0.6,4.4-0.3,6.4C175.8,185.4,159.1,196.3,140.8,196.3L140.8,196.3z M102.4,145.1v4.3
		c0,16.5,13.4,29.9,29.9,29.9h8.5c10.6,0,20.3-5.7,25.7-14.7c-2-6.4-3.3-12.9-3.9-19.4H102.4z M102.4,145.1"/>
	<path d="M379.7,196.3h-8.5c-18.3,0-35-10.8-42.7-27.6c-0.9-2-1-4.3-0.3-6.4c3-8.4,4.5-17.1,4.5-25.8c0-4.7,3.8-8.5,8.5-8.5h76.8
		c4.7,0,8.5,3.8,8.5,8.5v12.8C426.7,175.2,405.6,196.3,379.7,196.3L379.7,196.3z M345.5,164.5c5.3,9,15.1,14.7,25.7,14.7h8.5
		c16.5,0,29.9-13.4,29.9-29.9v-4.3h-60.1C348.9,151.6,347.5,158.1,345.5,164.5L345.5,164.5z M345.5,164.5"/>
	<path d="M187.7,93.9c-4.7,0-8.5-3.8-8.5-8.5V8.5c0-4.7,3.8-8.5,8.5-8.5c4.7,0,8.5,3.8,8.5,8.5v76.8
		C196.3,90.1,192.4,93.9,187.7,93.9L187.7,93.9z M187.7,93.9"/>
	<path d="M435.2,512h-128c-4.7,0-8.5-3.8-8.5-8.5V281.6c0-4.7,3.8-8.5,8.5-8.5h128c4.7,0,8.5,3.8,8.5,8.5v221.9
		C443.7,508.2,439.9,512,435.2,512L435.2,512z M315.7,494.9h110.9V290.1H315.7V494.9z M315.7,494.9"/>
	<path d="M401.1,426.7c-4.7,0-8.5-3.8-8.5-8.5v-25.6c0-4.7,3.8-8.5,8.5-8.5s8.5,3.8,8.5,8.5v25.6
		C409.6,422.9,405.8,426.7,401.1,426.7L401.1,426.7z M401.1,426.7"/>
	<path d="M264.5,443.7H76.8c-4.7,0-8.5-3.8-8.5-8.5V281.6c0-4.7,3.8-8.5,8.5-8.5h187.7c4.7,0,8.5,3.8,8.5,8.5v153.6
		C273.1,439.9,269.2,443.7,264.5,443.7L264.5,443.7z M85.3,426.7H256V290.1H85.3V426.7z M85.3,426.7"/>
	<path d="M136.5,366.9c-2.2,0-4.4-0.8-6-2.5c-3.3-3.3-3.3-8.7,0-12.1l34.1-34.1c3.3-3.3,8.7-3.3,12.1,0c3.3,3.3,3.3,8.7,0,12.1
		l-34.1,34.1C140.9,366.1,138.7,366.9,136.5,366.9L136.5,366.9z M136.5,366.9"/>
	<path d="M136.5,409.6c-2.2,0-4.4-0.8-6-2.5c-3.3-3.3-3.3-8.7,0-12.1l25.6-25.6c3.3-3.3,8.7-3.3,12.1,0c3.3,3.3,3.3,8.7,0,12.1
		l-25.6,25.6C140.9,408.8,138.7,409.6,136.5,409.6L136.5,409.6z M136.5,409.6"/>
	<path d="M187.7,358.4c-2.2,0-4.4-0.8-6-2.5c-3.3-3.3-3.3-8.7,0-12.1l25.6-25.6c3.3-3.3,8.7-3.3,12.1,0c3.3,3.3,3.3,8.7,0,12.1
		l-25.6,25.6C192.1,357.6,189.9,358.4,187.7,358.4L187.7,358.4z M187.7,358.4"/>
</g>
</svg>
