<?xml version="1.0" encoding="utf-8"?>
<!-- Generator: Adobe Illustrator 22.1.0, SVG Export Plug-In . SVG Version: 6.00 Build 0)  -->
<svg version="1.1" id="Capa_1" xmlns="http://www.w3.org/2000/svg" xmlns:xlink="http://www.w3.org/1999/xlink" x="0px" y="0px"
	 viewBox="0 0 452 512" style="enable-background:new 0 0 452 512;" xml:space="preserve">
<style type="text/css">
	.st0{fill:#FFFFFF;}
</style>
<g>
	<path class="st0" d="M198.5,82.7h17.7v17.7c0,5.5,4.5,10,10,10s10-4.5,10-10V82.7h17.7c5.5,0,10-4.5,10-10s-4.5-10-10-10h-17.7V45
		c0-5.5-4.5-10-10-10s-10,4.5-10,10v17.7h-17.7c-5.5,0-10,4.5-10,10S192.9,82.7,198.5,82.7z"/>
	<path class="st0" d="M437.1,364.2c-9.8-13.2-23.2-22.7-38.9-27.4L321,313.4l-0.7-3.4c-0.5-2.6-2.1-4.9-4.3-6.3l-32-21.3
		c4.9-4,9.5-8.4,13.7-13.2c18.1-20.7,28.1-47.2,28.1-74.7v-52.5c0-1.1-0.2-2.1-0.5-3c0.1-0.3,0.2-0.7,0.3-1.1L348,52.3
		c1-3.8-0.3-7.8-3.4-10.3C311.2,14.9,269,0,226,0c-43,0-85.2,14.9-118.6,42c-3.1,2.5-4.4,6.5-3.4,10.3l22.3,85.5
		c0.1,0.4,0.2,0.7,0.3,1.1c-0.3,1-0.5,2-0.5,3v52.5c0,27.5,10,54.1,28.1,74.7c4.2,4.8,8.8,9.2,13.7,13.2l-32,21.3
		c-1.6,1.1-2.8,2.6-3.6,4.3l-81,27.8C20.6,346.3,0,375.1,0,407.6V502c0,5.5,4.5,10,10,10h266.4h16.1H442c5.5,0,10-4.5,10-10v-92.6
		C452,393,446.8,377.3,437.1,364.2z M301.6,318l11.4,55.9l-33-24.4v-45.9L301.6,318z M125,53.6c59.5-44.5,142.5-44.5,202,0
		l-18.7,71.7h-42.6c0,0,0,0,0,0h-122L125,53.6z M305.8,145.3v25.4c-13.5-3.5-26.4-9.4-37.8-17.4l-1.6-1.1c1.7-2.2,3.2-4.5,4.7-6.8
		H305.8z M146.2,145.3h100c-15.8,18.2-38.4,29.5-63,30.9l-37,2.2V145.3z M146.3,198.4l38.1-2.2c26-1.5,50-12,68.5-29.1l3.6,2.5
		c14.8,10.4,31.7,17.8,49.3,21.7v3.1c0,46.2-34.2,85.7-79.8,92.5C181.7,280.3,148.2,242.9,146.3,198.4z M150.4,318l21.6-14.4v45.9
		l-33,24.4L150.4,318z M20,492v-84.4c0-23.9,15.2-45.1,37.8-52.9l69.7-23.9l-13.2,64.7c-0.8,4.1,0.9,8.2,4.4,10.4
		c1.6,1,3.5,1.6,5.4,1.6c2.1,0,4.2-0.7,5.9-2l10-7.4l66.6,93.9H20z M216,470.6l-59.9-84.4l23.2-17.2l36.7,58V470.6z M192,351.7
		v-54.3c10.3,4.8,21.3,8,32.7,9.5c0.4,0.1,0.9,0.1,1.3,0.1c0.4,0,0.9,0,1.3-0.1c11.4-1.5,22.4-4.8,32.7-9.5v54.3l-34,53.8L192,351.7
		z M236,427l36.7-58l24.6,18.2L236,473.6V427z M432,492H292.5h-16.1h-28.9l65.9-92.9l8.7,6.4c1.8,1.3,3.9,2,5.9,2
		c1.9,0,3.7-0.5,5.4-1.6c3.5-2.2,5.2-6.4,4.4-10.4l-12.2-59.9l66.8,20.2c23.7,7.2,39.7,28.7,39.7,53.5V492z"/>
</g>
</svg>
