<?xml version="1.0" encoding="utf-8"?>
<!-- Generator: Adobe Illustrator 22.1.0, SVG Export Plug-In . SVG Version: 6.00 Build 0)  -->
<svg version="1.1" id="Capa_1" xmlns="http://www.w3.org/2000/svg" xmlns:xlink="http://www.w3.org/1999/xlink" x="0px" y="0px"
	 viewBox="0 0 45.7 45.7" style="enable-background:new 0 0 45.7 45.7;" xml:space="preserve">
<g>
	<path d="M22.9,0C10.3,0,0,10.3,0,22.9c0,12.6,10.3,22.9,22.9,22.9c12.6,0,22.9-10.3,22.9-22.9C45.7,10.3,35.5,0,22.9,0z M22.9,43.3
		c-11.2,0-20.4-9.2-20.4-20.4S11.6,2.5,22.9,2.5c11.2,0,20.4,9.2,20.4,20.4S34.1,43.3,22.9,43.3z"/>
	<path d="M34.6,17.7H28v-6.6c0-0.7-0.6-1.2-1.2-1.2h-7.8c-0.7,0-1.2,0.6-1.2,1.2v6.6h-6.6c-0.7,0-1.2,0.6-1.2,1.2v7.8
		c0,0.7,0.6,1.2,1.2,1.2h6.6v6.6c0,0.7,0.6,1.2,1.2,1.2h7.8c0.7,0,1.2-0.6,1.2-1.2V28h6.6c0.7,0,1.2-0.6,1.2-1.2l0-7.9
		C35.8,18.2,35.2,17.7,34.6,17.7z M33.5,25.6h-6.7c-0.7,0-1.2,0.6-1.2,1.2v6.6h-5.4v-6.6c0-0.7-0.6-1.2-1.2-1.2h-6.6v-5.4h6.6
		c0.7,0,1.2-0.6,1.2-1.2v-6.6h5.4v6.6c0,0.7,0.6,1.2,1.2,1.2h6.6V25.6z"/>
</g>
</svg>
