<?xml version="1.0" encoding="utf-8"?>
<!-- Generator: Adobe Illustrator 22.1.0, SVG Export Plug-In . SVG Version: 6.00 Build 0)  -->
<svg version="1.1" id="Capa_1" xmlns="http://www.w3.org/2000/svg" xmlns:xlink="http://www.w3.org/1999/xlink" x="0px" y="0px"
	 viewBox="0 0 65 64" style="enable-background:new 0 0 65 64;" xml:space="preserve">
<style type="text/css">
	.st0{fill:#062BE3;}
	.st1{fill:none;stroke:#000000;stroke-width:2;stroke-miterlimit:10;}
</style>
<g>
	<path class="st0" d="M19,37.1l6.7-9.5l13.1,9.3l-6.7,9.5c-1.6,2.3-4.4,3.6-7.3,3.3c-1.4-0.1-2.7-0.6-3.9-1.4
		c-1.7-1.2-2.9-3.1-3.3-5.2C17.3,41,17.8,38.9,19,37.1z"/>
	<path d="M48.4,20.9c-0.4-2.4-1.8-4.6-3.8-6c-1.3-0.9-2.9-1.5-4.5-1.7c-3.3-0.3-6.5,1.2-8.4,3.9l-6.7,9.5c0,0,0,0,0,0c0,0,0,0,0,0
		l-6.7,9.5c-3,4.2-2,10,2.2,12.9c1.3,0.9,2.9,1.5,4.5,1.7c3,0.3,6-0.9,7.9-3.2c0,0,0,0,0.1-0.1l14-19.7
		C48.2,25.8,48.8,23.4,48.4,20.9z M31.4,46.4c-1.6,1.8-3.9,2.8-6.3,2.5c-1.3-0.1-2.5-0.6-3.6-1.3c-3.3-2.4-4.1-7-1.8-10.3l6.2-8.8
		l1.9,1.3c0,0,0,0,0,0c0,0,0,0,0,0L38,37L31.4,46.4z M45.3,26.8l-6.2,8.8L27,27l6.2-8.8c1.5-2.2,4.1-3.3,6.8-3.1
		c1.3,0.1,2.5,0.6,3.6,1.3c1.6,1.1,2.7,2.9,3,4.8C46.9,23.2,46.4,25.2,45.3,26.8z"/>
</g>
<path class="st1" d="M32.5,1C15.1,1,1,14.9,1,32c0,17.1,14.1,31,31.5,31C49.9,63,64,49.1,64,32C64,14.9,49.9,1,32.5,1z"/>
</svg>
