<?xml version="1.0" encoding="utf-8"?>
<!-- Generator: Adobe Illustrator 22.1.0, SVG Export Plug-In . SVG Version: 6.00 Build 0)  -->
<svg version="1.1" id="Capa_1" xmlns="http://www.w3.org/2000/svg" xmlns:xlink="http://www.w3.org/1999/xlink" x="0px" y="0px"
	 viewBox="0 0 41.5 41.5" style="enable-background:new 0 0 41.5 41.5;" xml:space="preserve">
<path d="M41.5,40.1c0-0.4-0.2-0.7-0.4-1l0,0L29.2,27.1l0.1-0.1C31.7,24,33,20.3,33,16.5C33,7.4,25.6,0,16.5,0C7.4,0,0,7.4,0,16.5
	S7.4,33,16.5,33c3.8,0,7.5-1.3,10.5-3.7l0.1-0.1l11.9,11.9c0.6,0.6,1.5,0.6,2,0C41.4,40.8,41.5,40.5,41.5,40.1z M16.5,30.1
	C9,30.1,2.9,24,2.9,16.5C2.9,9,9,2.9,16.5,2.9S30.1,9,30.1,16.5C30.1,24,24,30.1,16.5,30.1z"/>
</svg>
