<?xml version="1.0" encoding="utf-8"?>
<!-- Generator: Adobe Illustrator 22.1.0, SVG Export Plug-In . SVG Version: 6.00 Build 0)  -->
<svg version="1.1" id="Capa_1" xmlns="http://www.w3.org/2000/svg" xmlns:xlink="http://www.w3.org/1999/xlink" x="0px" y="0px"
	 viewBox="0 0 35.9 35.8" style="enable-background:new 0 0 35.9 35.8;" xml:space="preserve">
<style type="text/css">
	.st0{fill:#FFFFFF;}
</style>
<path class="st0" d="M17.9,0C8,0,0,8,0,17.9c0,9.9,8,17.9,17.9,17.9c9.9,0,17.9-8,17.9-17.9C35.9,8,27.8,0,17.9,0z M18,25.8
	c-0.2,0-0.4,0-0.6-0.2c0,0-4.1-3.4-4.2-3.6h-2.2c-0.5,0-1-0.4-1-1v-6c0-0.5,0.4-1,1-1h2.2c0.2-0.2,4.2-3.7,4.2-3.7
	c0.2-0.1,0.5-0.2,0.6-0.2c0.4,0,0.6,0.3,0.7,0.7c0,0,0,14.3,0,14.3C18.6,25.4,18.3,25.8,18,25.8z M25.4,19.8c0.2,0.2,0.2,0.6,0,0.8
	c-0.2,0.2-0.6,0.2-0.8,0L22.9,19l-1.7,1.7c-0.2,0.2-0.6,0.2-0.8,0c-0.2-0.2-0.2-0.6,0-0.8l1.7-1.7l-1.7-1.7c-0.2-0.2-0.2-0.6,0-0.8
	c0.2-0.2,0.6-0.2,0.8,0l1.7,1.7l1.7-1.7c0.2-0.2,0.6-0.2,0.8,0c0.2,0.2,0.2,0.6,0,0.8l-1.7,1.7L25.4,19.8z"/>
</svg>
