<?xml version="1.0" encoding="utf-8"?>
<!-- Generator: Adobe Illustrator 22.1.0, SVG Export Plug-In . SVG Version: 6.00 Build 0)  -->
<svg version="1.1" id="Capa_1" xmlns="http://www.w3.org/2000/svg" xmlns:xlink="http://www.w3.org/1999/xlink" x="0px" y="0px"
	 viewBox="0 0 35.9 35.8" style="enable-background:new 0 0 35.9 35.8;" xml:space="preserve">
<style type="text/css">
	.st0{fill:#FFFFFF;}
</style>
<path class="st0" d="M17.9,0C8,0,0,8,0,17.9c0,9.9,8,17.9,17.9,17.9c9.9,0,17.9-8,17.9-17.9C35.9,8,27.8,0,17.9,0z M22.8,22.6
	c0,0.8-0.6,1.4-1.4,1.4H9.6c-0.8,0-1.4-0.6-1.4-1.4v-9.3c0-0.8,0.6-1.4,1.4-1.4h11.8c0.8,0,1.4,0.6,1.4,1.4V22.6z M28.6,21.8
	c0,0.3-0.3,0.5-0.6,0.4L23.9,20c-0.1-0.1-0.2-0.2-0.2-0.4v-3.4c0-0.1,0.1-0.3,0.2-0.4l4.1-2.2c0.3-0.1,0.6,0,0.6,0.4V21.8z"/>
</svg>
